<?xml version="1.0"?>
<svg version="1.1" xmlns="http://www.w3.org/2000/svg" width="120" height="200" style=""><path fill="#" d="M16.19140625,93.2421875q0-0.91796875,0.224609375-1.337890625t0.64453125-0.5859375t1.015625-0.126953125t1.396484375,0.0390625q2.03125,0,4.1015625,0.625t3.73046875,1.826171875t2.67578125,2.958984375t1.015625,4.04296875q0,1.5234375-0.439453125,2.880859375t-1.240234375,2.5390625t-1.875,2.158203125t-2.36328125,1.69921875q0.52734375,0.52734375,1.3671875,1.865234375t1.66015625,2.8515625t1.455078125,2.939453125t0.751953125,2.1484375l-0.234375,0.3515625q-0.52734375,0.3125-1.26953125,0.33203125q-0.3515625,0-0.91796875-0.087890625t-0.72265625-0.517578125q-0.80078125-2.24609375-1.748046875-4.62890625t-2.333984375-4.296875l0-0.0390625q-0.48828125,0.1953125-0.966796875,0.380859375t-0.966796875,0.341796875q0.15625,2.16796875,0.322265625,4.267578125t0.166015625,4.248046875q0,0.2734375-0.263671875,0.439453125t-0.595703125,0.263671875t-0.673828125,0.13671875t-0.556640625,0.0390625q-0.1953125,0-0.556640625-0.0390625t-0.693359375-0.13671875t-0.576171875-0.283203125t-0.244140625-0.498046875q0-2.16796875-0.09765625-4.326171875t-0.21484375-4.306640625q-0.60546875-0.390625-0.60546875-1.015625q0-0.48828125,0.46875-0.6640625q-0.234375-4.12109375-0.537109375-8.22265625t-0.302734375-8.26171875z M19.7265625,92.63671875q0.2734375,4.23828125,0.615234375,8.37890625t0.654296875,8.37890625q1.3671875-0.390625,2.548828125-1.357421875t2.041015625-2.177734375t1.337890625-2.63671875t0.478515625-2.83203125q0-1.5625-0.625-2.998046875t-1.66015625-2.509765625q-1.0546875-1.07421875-2.421875-1.6796875q-1.2109375-0.52734375-2.5390625-0.52734375l-0.3515625,0z M34.9935546875,112.71484375q0-1.328125,0.361328125-2.55859375t1.083984375-2.197265625t1.806640625-1.54296875t2.509765625-0.576171875q0.87890625,0,1.943359375,0.263671875t2.001953125,0.78125t1.5625,1.318359375t0.625,1.8359375q0,0.48828125-0.166015625,0.7421875t-0.673828125,0.25390625l-0.21484375-0.0390625q0.56640625,1.5234375,0.9765625,3.125t0.80078125,3.203125q0.15625,0.3125,0.234375,0.556640625t0.078125,0.478515625q0,0.3125-0.17578125,0.517578125t-0.458984375,0.302734375t-0.5859375,0.13671875t-0.537109375,0.0390625q-0.83984375,0-1.259765625-0.29296875t-0.60546875-0.80078125t-0.224609375-1.142578125t-0.15625-1.279296875q-0.234375,0.76171875-0.615234375,1.484375t-0.8984375,1.298828125t-1.220703125,0.91796875t-1.58203125,0.341796875q-1.2890625,0-2.16796875-0.7421875t-1.416015625-1.826171875t-0.78125-2.314453125t-0.244140625-2.28515625z M37.7669921875,112.44140625q0,0.72265625,0.09765625,1.5234375t0.322265625,1.58203125t0.576171875,1.474609375t0.87890625,1.220703125q0.95703125-1.03515625,1.416015625-2.51953125t0.8203125-2.861328125t0.8203125-2.36328125t1.416015625-0.986328125q0.60546875,0,1.015625,0.21484375q-0.1953125-0.48828125-0.64453125-0.947265625t-1.005859375-0.83984375t-1.15234375-0.625t-1.123046875-0.244140625q-0.15625,0-0.361328125,0.048828125t-0.322265625,0.009765625q-0.80078125,0.234375-1.318359375,0.810546875t-0.83984375,1.357421875t-0.458984375,1.6015625t-0.13671875,1.54296875z M51.920703125,107.67578125q0-0.80078125,0.46875-1.376953125t1.142578125-0.9375t1.474609375-0.537109375t1.484375-0.17578125q0.52734375,0,1.40625,0.15625t1.71875,0.46875t1.455078125,0.8203125t0.615234375,1.19140625q0,0.3125-0.234375,0.556640625t-0.48828125,0.244140625q-0.52734375,0-0.95703125-0.341796875t-0.888671875-0.72265625t-1.005859375-0.72265625t-1.23046875-0.341796875t-1.240234375,0.439453125t-0.556640625,1.162109375q0,1.19140625,0.83984375,2.333984375t1.845703125,2.40234375t1.845703125,2.646484375t0.83984375,3.06640625q0,0.72265625-0.302734375,1.220703125t-0.80078125,0.810546875t-1.123046875,0.478515625t-1.2109375,0.166015625q-0.64453125,0-1.50390625-0.302734375t-1.62109375-0.80078125t-1.279296875-1.162109375t-0.517578125-1.38671875q0-0.3515625,0.498046875-0.44921875t0.732421875-0.09765625q0.1171875,0,0.361328125,0.078125t0.478515625,0.17578125t0.419921875,0.21484375t0.146484375,0.25390625q0.1953125,0.234375,0.595703125,0.693359375t0.80078125,0.7421875t0.703125,0.205078125t0.302734375-0.87890625q0-1.5234375-0.8203125-2.802734375t-1.787109375-2.5t-1.787109375-2.421875t-0.8203125-2.568359375z M65.6837890625,92.83203125q0-1.3671875,0.46875-1.8359375t1.30859375-0.46875q0.234375,0,0.498046875,0.0390625t0.498046875,0.1171875q1.30859375-0.25390625,2.48046875-0.25390625q1.89453125,0,3.4375,0.6640625q2.48046875,1.0546875,4.1015625,3.125t2.3828125,4.86328125t0.76171875,5.72265625q0,1.640625-0.224609375,3.41796875t-0.869140625,3.30078125q-0.56640625,1.3671875-1.5625,2.861328125t-2.255859375,2.83203125t-2.71484375,2.34375t-2.939453125,1.357421875l0,0.15625q0,0.390625-0.205078125,0.634765625t-0.498046875,0.37109375t-0.673828125,0.166015625t-0.712890625,0.0390625q-0.1953125,0-0.556640625-0.0390625t-0.703125-0.146484375t-0.576171875-0.283203125t-0.234375-0.48828125q0-3.5546875-0.185546875-7.119140625t-0.419921875-7.12890625t-0.419921875-7.119140625t-0.185546875-7.12890625z M69.3751953125,91.8359375q0.1953125,1.875,0.25390625,3.740234375t0.17578125,3.740234375q0.3125,4.84375,0.72265625,9.638671875t0.48828125,9.638671875q1.875-1.23046875,3.212890625-2.8125t2.197265625-3.4375t1.259765625-3.896484375t0.400390625-4.208984375q0-1.5625-0.2734375-3.4375t-0.9375-3.61328125t-1.787109375-3.14453125t-2.802734375-2.01171875q-0.3515625-0.1171875-0.849609375-0.1953125t-1.591796875-0.078125q-0.1171875,0-0.234375,0.0390625t-0.234375,0.0390625z M85.59921875,113.515625q0-1.3671875,0.302734375-3.22265625t1.025390625-3.515625t1.904296875-2.822265625t2.978515625-1.162109375q1.6796875,0,2.51953125,0.966796875t0.83984375,2.607421875q0,1.07421875-0.400390625,2.353515625t-1.142578125,2.421875t-1.7578125,1.904296875t-2.265625,0.76171875l-0.5078125-0.0390625q0,0.52734375,0.15625,1.416015625t0.458984375,1.767578125t0.78125,1.54296875t1.162109375,0.6640625q0.99609375,0,1.9140625-0.80078125t1.73828125-1.77734375t1.5234375-1.77734375t1.2890625-0.80078125q0.3125,0,0.64453125,0.09765625t0.37109375,0.546875q0,0.2734375-0.146484375,0.44921875t-0.263671875,0.390625q-0.60546875,1.03515625-1.318359375,1.97265625t-1.611328125,1.69921875t-1.962890625,1.201171875t-2.353515625,0.439453125q-1.6796875,0-2.79296875-0.595703125t-1.796875-1.6015625t-0.986328125-2.32421875t-0.302734375-2.763671875z M89.0953125,112.03125l0.546875,0.48828125q0.390625,0.3515625,0.78125,0.15625t0.703125-0.712890625t0.576171875-1.279296875t0.46875-1.5625t0.302734375-1.5625t0.09765625-1.26953125l0-0.6640625t-0.05859375-0.703125t-0.205078125-0.556640625t-0.458984375-0.283203125q-0.09765625-0.01953125-0.17578125-0.01953125q-0.6640625,0-1.1328125,0.83984375q-0.5078125,0.9375-0.8203125,2.275390625t-0.44921875,2.744140625t-0.17578125,2.109375z M101.1201171875,105.44921875q0-0.15625,0.185546875-0.283203125t0.419921875-0.185546875t0.478515625-0.078125t0.361328125-0.01953125q0.87890625,0,1.50390625,0.78125t1.083984375,2.001953125t0.78125,2.6953125t0.615234375,2.939453125t0.576171875,2.685546875t0.634765625,1.884765625q0.60546875-1.19140625,1.103515625-2.87109375t0.91796875-3.4765625t0.7421875-3.544921875t0.517578125-3.056640625q0.078125-0.3515625,0.48828125-0.439453125t0.68359375-0.087890625q0.44921875,0,0.78125,0.126953125t0.33203125,0.556640625q0,0.72265625-0.17578125,1.962890625t-0.478515625,2.783203125t-0.703125,3.1640625t-0.859375,3.076171875t-0.95703125,2.578125t-0.986328125,1.591796875q-0.234375,0.2734375-0.732421875,0.380859375t-0.830078125,0.107421875q-1.15234375,0-1.9140625-0.60546875l0,0.0390625q-1.19140625-1.11328125-1.7578125-2.71484375t-0.8203125-3.33984375t-0.458984375-3.45703125t-0.693359375-3.125q-0.078125-0.15625-0.1953125-0.458984375t-0.2734375-0.60546875t-0.263671875-0.576171875t-0.107421875-0.4296875z"/><path fill="#" d=""/></svg>
